HIERARCHY
ROOT Hips
{
	OFFSET 0.00 0.00 0.00
	CHANNELS 6 Xposition Yposition Zposition Xrotation Yrotation Zrotation
	JOINT Spine
	{
		OFFSET 0.00000 4.88528 0.00000
		CHANNELS 3 Xrotation Yrotation Zrotation
		JOINT Head
		{
			OFFSET 0.00000 16.49416 0.00000
			CHANNELS 3 Xrotation Yrotation Zrotation
			End Site
			{
				OFFSET 0.00000 4.52755 0.00000
			}
		}
		JOINT LeftShoulder
		{
			OFFSET 0.00000 10.66345 0.00000
			CHANNELS 3 Xrotation Yrotation Zrotation
			JOINT LeftArm
			{
				OFFSET 7.53191 0.00000 0.00000
				CHANNELS 3 Xrotation Yrotation Zrotation
				JOINT LeftForeArm
				{
					OFFSET 10.22920 0.00000 0.00000
					CHANNELS 3 Yrotation Zrotation Xrotation
					JOINT LeftHand
					{
						OFFSET 8.67349 0.00000 0.00000
						CHANNELS 3 Xrotation Yrotation Zrotation
						JOINT LeftHandThumb1
						{
							OFFSET 0.00000 0.00000 0.00000
							CHANNELS 3 Xrotation Zrotation Yrotation
							End Site
							{
								OFFSET 0.00000 0.00000 3.93700
							}
						}
						End Site
						{
							OFFSET 3.93700 0.00000 0.00000
						}
					}
				}
			}
		}
		JOINT RightShoulder
		{
			OFFSET 0.00000 10.66345 0.00000
			CHANNELS 3 Xrotation Yrotation Zrotation
			JOINT RightArm
			{
				OFFSET -7.53191 0.00000 0.00000
				CHANNELS 3 Xrotation Yrotation Zrotation
				JOINT RightForeArm
				{
					OFFSET -10.22920 0.00000 0.00000
					CHANNELS 3 Yrotation Zrotation Xrotation
					JOINT RightHand
					{
						OFFSET -8.67349 0.00000 0.00000
						CHANNELS 3 Xrotation Yrotation Zrotation
						JOINT RightHandThumb1
						{
							OFFSET 0.00000 0.00000 0.00000
							CHANNELS 3 Xrotation Zrotation Yrotation
							End Site
							{
								OFFSET 0.00000 0.00000 3.93700
							}
						}
						End Site
						{
							OFFSET -3.93700 0.00000 0.00000
						}
					}
				}
			}
		}
	}
	JOINT LeftUpLeg
	{
		OFFSET 2.67219 0.00000 0.00000
		CHANNELS 3 Xrotation Yrotation Zrotation
		JOINT LeftLeg
		{
			OFFSET 0.00000 -16.26339 0.00000
			CHANNELS 3 Xrotation Yrotation Zrotation
			JOINT LeftFoot
			{
				OFFSET 0.00000 -14.32816 0.00000
				CHANNELS 3 Xrotation Yrotation Zrotation
				JOINT LeftToeBase
				{
					OFFSET 0.00000 -1.30219 4.85985
					CHANNELS 3 Xrotation Yrotation Zrotation
					End Site
					{
						OFFSET 0.00000 0.00000 2.95275
					}
				}
			}
		}
	}
	JOINT RightUpLeg
	{
		OFFSET -2.67219 0.00000 0.00000
		CHANNELS 3 Xrotation Yrotation Zrotation
		JOINT RightLeg
		{
			OFFSET 0.00000 -16.26339 0.00000
			CHANNELS 3 Xrotation Yrotation Zrotation
			JOINT RightFoot
			{
				OFFSET 0.00000 -14.32816 0.00000
				CHANNELS 3 Xrotation Yrotation Zrotation
				JOINT RightToeBase
				{
					OFFSET 0.00000 -1.30219 4.85985
					CHANNELS 3 Xrotation Yrotation Zrotation
					End Site
					{
						OFFSET 0.00000 0.00000 2.95275
					}
				}
			}
		}
	}
}
MOTION
Frames: 11
Frame Time: 0.008333
 -18.6612 31.6939 4.6707 -60.4391 -22.6525 -89.3770 -66.0659 -2.7240 -21.1283 -93.1086 -6.5820 -15.5788 -12.8668 9.8959 38.2034 -114.4879 -14.7764 -6.0896 -38.4511 -0.0000 -29.4173 18.2253 -4.9365 75.3539 33.1476 -0.0000 26.2537 -26.8882 1.0777 -47.9253 -52.3233 17.8883 -27.4858 13.8881 -0.0000 -50.2373 19.0965 8.3946 -67.1361 32.8623 0.0000 -24.3270 35.4132 0.8474 26.9860 53.0325 0.0000 -0.0000 -20.3527 16.8727 -0.4229 -17.9237 0.0000 -0.0000 -73.9812 2.4794 -12.9696 31.5831 0.0000 0.0000 -7.8607 -22.8589 -1.0854 9.6064 0.0000 -0.0000
 -18.3805 31.6852 4.6469 -60.6980 -22.1475 -89.8533 -66.2881 -2.6853 -21.2297 -93.0775 -6.6517 -15.5222 -13.1327 9.8108 38.0745 -115.4190 -16.6710 -7.9270 -35.8126 -0.0000 -27.8851 17.6557 -2.9872 80.7016 33.1476 -0.0000 26.2537 -27.0479 0.3997 -47.0969 -53.3136 22.2065 -26.1778 9.5883 -0.0000 -48.4292 19.9332 8.7200 -67.3126 32.8623 0.0000 -24.3270 34.9763 1.2335 27.0182 53.3567 -0.0000 -0.0000 -19.2276 17.3185 0.2074 -18.2165 0.0000 0.0000 -75.3026 2.7396 -13.6725 31.5606 0.0000 0.0000 -8.1933 -22.5940 -1.0629 9.3879 0.0000 0.0000
 -18.0921 31.6795 4.6283 -61.0240 -21.6368 -90.3668 -66.5144 -2.6827 -21.1335 -93.0745 -6.7804 -15.6141 -13.1000 9.6690 37.8128 -117.2337 -18.2815 -9.9323 -33.2597 -0.0000 -25.7490 18.4429 -1.4154 85.7639 33.1476 -0.0000 26.2537 -27.2659 -0.0614 -46.2090 -54.9715 27.0656 -24.6510 4.8512 -0.0000 -46.6346 21.6157 9.6306 -67.1104 32.8623 0.0000 -24.3270 34.5256 1.6956 26.9948 53.6514 0.0000 -0.0000 -17.9562 17.8215 0.6897 -18.9845 0.0000 -0.0000 -76.5937 2.9922 -14.3119 31.5102 -0.0000 -0.0000 -8.5274 -22.1752 -1.2694 10.1346 -0.0000 0.0000
 -17.8015 31.6853 4.6052 -61.4027 -21.0289 -90.8796 -66.6136 -2.6383 -21.0146 -93.1984 -6.9242 -15.7494 -12.9726 9.4378 37.6450 -119.9411 -19.1127 -12.2354 -31.7084 -0.0000 -23.5838 19.3197 -0.3083 89.1207 33.1476 -0.0000 26.2537 -27.0118 -0.0863 -45.6455 -56.4387 30.1769 -23.7697 1.4747 -0.0000 -44.9001 22.9523 10.5952 -66.5308 32.8623 0.0000 -24.3270 34.1128 2.2692 26.9317 53.8784 0.0000 -0.0000 -16.4060 18.4617 1.3534 -20.2710 -0.0000 -0.0000 -77.7836 3.2885 -14.8890 31.5004 -0.0000 -0.0000 -8.7918 -21.8533 -1.4813 10.2960 0.0000 -0.0000
 -17.5007 31.6986 4.5891 -61.7458 -20.4146 -91.3812 -66.6293 -2.6417 -20.8374 -93.2742 -6.8950 -15.8447 -13.6611 9.1228 37.4424 -122.9495 -18.8686 -15.4661 -31.3082 -0.0000 -19.6821 18.5017 0.4527 91.3526 33.1476 -0.0000 26.2537 -26.9192 0.1462 -45.3736 -57.9051 32.2940 -22.9045 -0.5647 -0.0000 -43.4163 23.7330 10.9184 -66.6928 32.8623 0.0000 -24.3270 33.7088 2.7862 26.8648 54.0670 -0.0000 -0.0000 -14.6523 19.1102 1.9805 -21.7982 0.0000 -0.0000 -78.9322 3.4984 -15.5220 31.4618 -0.0000 -0.0000 -8.8883 -21.6628 -1.6440 10.3793 0.0000 -0.0000
 -17.1878 31.7187 4.5786 -62.0443 -19.7689 -91.8082 -66.5393 -2.7111 -20.6679 -93.6206 -7.0236 -15.8591 -13.8039 8.8919 36.9754 -126.0191 -18.7786 -17.9187 -31.2241 -0.0000 -17.0869 18.6611 0.6614 91.9575 33.1476 -0.0000 26.2537 -27.1422 0.4323 -45.1425 -59.7667 34.2568 -21.6858 -2.3115 -0.0000 -41.3589 24.6782 11.4021 -66.7204 32.8623 0.0000 -24.3270 33.3824 3.1027 26.7398 54.2328 -0.0000 0.0000 -12.6793 19.7237 2.1497 -23.3890 -0.0000 -0.0000 -79.9978 3.7155 -16.2201 31.3624 0.0000 0.0000 -8.7210 -21.5838 -1.7050 10.0446 -0.0000 0.0000
 -16.8654 31.7482 4.5716 -62.3521 -19.1479 -92.2131 -66.4407 -2.8089 -20.4500 -93.9836 -7.1425 -15.8229 -13.7570 8.4293 36.2914 -128.3846 -19.2663 -19.5518 -30.8851 -0.0000 -15.1582 19.1553 0.7939 92.2843 33.1476 -0.0000 26.2537 -27.4918 0.7090 -44.8946 -61.5817 36.0709 -20.4546 -3.9344 -0.0000 -39.2309 25.5361 11.6684 -67.0554 32.8623 0.0000 -24.3270 32.9677 3.4240 26.5641 54.3490 -0.0000 0.0000 -10.3487 20.3856 2.7987 -25.4378 -0.0000 0.0000 -81.0597 3.8925 -16.9322 31.2181 0.0000 0.0000 -8.6699 -21.8213 -1.1082 11.4790 0.0000 -0.0000
 -16.5359 31.7934 4.5720 -62.6694 -18.5512 -92.5737 -66.4087 -2.9836 -20.2114 -94.3176 -7.0276 -15.6011 -14.0313 7.5767 35.6023 -129.9612 -20.2302 -20.7546 -30.0674 -0.0000 -12.8346 18.9134 1.0082 92.9397 33.1476 -0.0000 26.2537 -28.0189 0.8785 -44.5875 -63.4473 37.9397 -18.8689 -5.8276 -0.0000 -36.8910 26.8113 11.9471 -67.7257 32.8623 0.0000 -24.3270 32.5323 3.7233 26.3263 54.3447 0.0000 0.0000 -7.7235 20.9983 3.4867 -27.4484 -0.0000 -0.0000 -82.1045 4.0081 -17.6668 30.9969 -0.0000 0.0000 -8.2391 -21.9628 -0.9556 11.8861 -0.0000 0.0000
 -16.1869 31.8518 4.5739 -62.9968 -18.0378 -92.9324 -66.4477 -3.2445 -19.9633 -94.5411 -7.0932 -15.3367 -14.5977 6.9725 34.9432 -131.0190 -21.2727 -21.9428 -28.9729 -0.0000 -11.0216 18.8183 1.1257 93.2993 33.1476 -0.0000 26.2537 -28.5644 0.6507 -44.1888 -65.1386 39.6854 -17.2744 -7.6428 -0.0000 -35.0074 27.7643 11.9439 -68.5394 32.8623 0.0000 -24.3270 31.9974 3.9372 26.0942 54.2902 0.0000 0.0000 -4.7121 21.5072 3.7404 -29.7699 0.0000 0.0000 -83.1367 4.0394 -18.3989 30.6048 0.0000 -0.0000 -7.6139 -22.0565 -0.7392 12.2623 0.0000 0.0000
 -15.8251 31.9269 4.5756 -63.3466 -17.6239 -93.2263 -66.6114 -3.5162 -19.7389 -94.7142 -7.2019 -15.0400 -15.8134 6.4294 34.6754 -131.3767 -21.8364 -23.0994 -27.7304 -0.0000 -9.2548 18.8167 1.4589 94.2730 33.1476 -0.0000 26.2537 -28.8842 0.3328 -43.8142 -65.3941 40.8171 -16.7313 -9.2313 -0.0000 -34.6144 28.0758 11.8519 -68.9414 32.8623 0.0000 -24.3270 31.3114 4.1224 25.8100 54.0909 0.0000 0.0000 -1.1528 22.0122 3.9365 -32.3657 0.0000 0.0000 -84.1499 4.1394 -19.1005 30.0699 -0.0000 -0.0000 -6.6776 -21.9905 -0.8055 12.3307 0.0000 0.0000
 -15.4574 32.0157 4.5804 -63.6588 -17.2798 -93.3475 -66.9122 -3.7426 -19.6384 -94.7285 -7.2974 -14.7722 -16.3540 6.2999 34.4964 -131.6629 -22.9440 -23.6153 -25.9342 -0.0000 -8.2971 18.6987 1.7054 95.0250 33.1476 -0.0000 26.2537 -29.1977 0.0764 -43.4067 -64.6374 41.6163 -16.7625 -10.5013 -0.0000 -35.0798 27.9128 11.6341 -69.1600 32.8623 0.0000 -24.3270 30.4679 4.1656 25.4418 53.8696 -0.0000 0.0000 2.8749 22.4243 4.2266 -34.4882 0.0000 -0.0000 -85.2770 4.2542 -19.8870 29.5796 -0.0000 -0.0000 -5.7497 -21.7526 -0.4898 12.7463 0.0000 -0.0000
